Coordinates
version=1
nRows=29
nColumns=24
inDegrees=yes

Units are S.I. units (second, meters, Newtons, ...)
Angles are in degrees.

endheader
time	pelvis_tilt	pelvis_list	pelvis_rotation	pelvis_tx	pelvis_ty	pelvis_tz	hip_flexion_r	hip_adduction_r	hip_rotation_r	knee_angle_r	ankle_angle_r	subtalar_angle_r	mtp_angle_r	hip_flexion_l	hip_adduction_l	hip_rotation_l	knee_angle_l	ankle_angle_l	subtalar_angle_l	mtp_angle_l	lumbar_extension	lumbar_bending	lumbar_rotation
      1.21616667	     -4.60993710	     -1.92092821	     -9.51633657	      0.03131744	      0.86778342	      0.32044981	    -16.01119077	      5.35626923	      5.42731225	    -10.58963780	     19.38359974	     12.08516496	      9.46374856	     33.63741032	     -5.87414796	     -8.53320212	     -6.14031543	      4.95096063	     -2.20682000	      0.15728244	     -3.79343302	      3.91549783	     13.16691254
      1.22033333	     -4.71726616	     -1.83988968	     -9.56941923	      0.03701147	      0.86659195	      0.32036777	    -16.04407744	      5.21041437	      5.42064364	    -11.05063720	     19.26599388	     12.14906581	     13.29121817	     33.89816023	     -5.80373346	     -8.51687757	     -6.85954618	      4.81063917	     -2.18115933	      0.76434585	     -3.67744417	      3.73553263	     13.21515054
      1.22450000	     -4.82395900	     -1.75141028	     -9.60706740	      0.04277172	      0.86545372	      0.32026145	    -16.07685100	      5.06275572	      5.41707572	    -11.52009704	     19.13577008	     12.17494072	     13.32112809	     34.13074253	     -5.70738713	     -8.44027668	     -7.55886607	      4.59840379	     -2.31554638	      0.77945536	     -3.52809334	      3.54450159	     13.23150506
      1.22866667	     -4.93078191	     -1.65542603	     -9.62977983	      0.04856771	      0.86435788	      0.32012050	    -16.09180594	      4.90987124	      5.39257365	    -12.02412534	     19.00020121	     12.20699455	     13.38729186	     34.36294380	     -5.59329066	     -8.37341853	     -8.28657064	      4.33209007	     -2.46093558	      0.80924600	     -3.37842997	      3.34761729	     13.23911834
      1.23283333	     -5.04207586	     -1.55640873	     -9.63758453	      0.05440024	      0.86329908	      0.31994091	    -16.08713275	      4.75728832	      5.35319624	    -12.55697898	     18.85515349	     12.25847594	     13.53489300	     34.59806067	     -5.46493882	     -8.29707352	     -9.03688665	      4.01393393	     -2.66267600	      0.87471370	     -3.22509841	      3.15851623	     13.23685283
      1.23700000	     -5.14952853	     -1.43332440	     -9.63046856	      0.06030056	      0.86231535	      0.31973311	    -16.07637325	      4.58134165	      5.30346594	    -13.09794103	     18.58481947	     12.25053117	     13.65350633	     34.80958516	     -5.30055767	     -8.22658711	     -9.76712023	      3.63347333	     -2.84481862	      0.92460201	     -3.06734480	      2.91139268	     13.21849625
      1.24116667	     -5.23543785	     -1.28653346	     -9.58881988	      0.06626149	      0.86139930	      0.31941262	    -16.05856409	      4.37062791	      5.11707106	    -13.69086664	     18.35613315	     12.43497959	     14.81600060	     34.96809836	     -5.06349011	     -8.01131466	    -10.44094285	      3.14279881	     -3.39035023	      1.43038647	     -2.92227102	      2.65733486	     13.17911945
      1.24533333	     -5.37291571	     -1.17137783	     -9.57223442	      0.07220119	      0.86048583	      0.31919478	    -15.98356143	      4.21947243	      5.12981713	    -14.29397585	     18.00640796	     12.29866368	     14.94524995	     35.22907896	     -4.91423589	     -8.00867551	    -11.24891547	      2.70720669	     -3.48835205	      1.48292706	     -2.73378661	      2.43432908	     13.13974676
      1.24950000	     -5.50971348	     -1.04389575	     -9.51804086	      0.07819335	      0.85961594	      0.31889177	    -15.89039387	      4.05830557	      5.06504172	    -14.92763324	     17.63414003	     12.25803197	     15.14727952	     35.48262842	     -4.71799835	     -7.91527871	    -12.04751943	      2.24343029	     -3.76066073	      1.56035764	     -2.53525922	      2.20084094	     13.08232100
      1.25366667	     -5.59618197	     -0.86940891	     -9.46666412	      0.08425238	      0.85888899	      0.31853464	    -15.81209878	      3.82423609	      4.92046119	    -15.61315946	     17.20293526	     12.23575654	     19.21296228	     35.64742565	     -4.45527236	     -7.81279242	    -12.78379761	      1.70738973	     -4.26419776	      3.15290442	     -2.38490410	      1.90013343	     13.01013431
      1.25783333	     -5.72260526	     -0.74583304	     -9.35872684	      0.09032677	      0.85815460	      0.31813861	    -15.71033271	      3.67605263	      4.80808194	    -16.27258591	     16.67531531	     12.19565585	     19.25081259	     35.89894480	     -4.23179348	     -7.69650447	    -13.61767590	      1.22033560	     -4.47342701	      3.16973282	     -2.19960818	      1.67329273	     12.94905153
      1.26200000	     -5.86660251	     -0.59909766	     -9.25770535	      0.09639369	      0.85744162	      0.31769851	    -15.53124903	      3.50109851	      4.67844150	    -17.04370488	     16.24580120	     12.16662160	     19.40832737	     36.16409215	     -3.97726598	     -7.53172063	    -14.44856122	      0.72025329	     -4.94670996	      3.21953930	     -1.98758592	      1.43069889	     12.82542039
      1.26616667	     -5.98841382	     -0.43116965	     -9.14135001	      0.10252422	      0.85683665	      0.31722690	    -15.35984075	      3.29936202	      4.51726686	    -17.82978255	     15.71089865	     12.15471871	     19.64819235	     36.39534406	     -3.68954729	     -7.37661969	    -15.26937667	      0.24172257	     -5.36959197	      3.28346263	     -1.79955212	      1.14621428	     12.71458259
      1.27033333	     -6.07420326	     -0.23661731	     -9.00648312	      0.10872073	      0.85635026	      0.31670984	    -15.20172587	      3.05900397	      4.29486771	    -18.64418952	     15.03858153	     12.14213422	     23.27049088	     36.57509518	     -3.35901193	     -7.22458780	    -16.07274847	     -0.18615781	     -5.78657324	      4.18868026	     -1.65150714	      0.81928577	     12.62967040
      1.27450000	     -6.17844512	     -0.06679732	     -8.86983216	      0.11492826	      0.85590397	      0.31621588	    -15.01899273	      2.85748562	      4.14137439	    -19.46703971	     14.33846751	     12.08742700	     23.30819464	     36.80236566	     -3.06942285	     -7.11048125	    -16.96102787	     -0.52345599	     -6.04453559	      4.19523327	     -1.48137483	      0.51556544	     12.53522021
      1.27866667	     -6.28889754	      0.11712449	     -8.71481578	      0.12114881	      0.85549299	      0.31566052	    -14.78612519	      2.64146448	      3.94315003	    -20.36991332	     13.64837009	     12.06478786	     23.40357637	     37.03486414	     -2.74695258	     -6.94552397	    -17.84909301	     -0.82059520	     -6.39996469	      4.20453282	     -1.30311568	      0.20752706	     12.41366931
      1.28283333	     -6.39006269	      0.30226068	     -8.54611383	      0.12735979	      0.85513750	      0.31504398	    -14.51634803	      2.41747094	      3.69424442	    -21.35911853	     12.99971413	     12.08340789	     23.66558235	     37.25890336	     -2.40389417	     -6.72769955	    -18.74417995	     -1.11556102	     -6.88423384	      4.22246924	     -1.14376216	     -0.07501753	     12.24686594
      1.28700000	     -6.42642192	      0.52970595	     -8.38577434	      0.13367841	      0.85498038	      0.31442847	    -14.30735029	      2.12378193	      3.42211412	    -22.32372789	     12.12612654	     12.11382654	     27.21357981	     37.38392990	     -2.02266196	     -6.59007207	    -19.60327221	     -1.32998063	     -7.26385930	      4.39028726	     -1.05114827	     -0.44598801	     12.14345269
      1.29116667	     -6.50184658	      0.71859809	     -8.17979096	      0.13997894	      0.85476537	      0.31377470	    -14.03457739	      1.89738064	      3.14490809	    -23.35075975	     11.32013229	     12.08477087	     27.27963487	     37.58750597	     -1.66328229	     -6.38290557	    -20.54999175	     -1.37476033	     -7.50745400	      4.38881898	     -0.91220781	     -0.76228361	     12.02648519
      1.29533333	     -6.54953734	      0.93553533	     -7.98508018	      0.14631533	      0.85466185	      0.31309863	    -13.75287440	      1.62071875	      2.83904442	    -24.43196479	     10.47245772	     12.12984940	     27.43659602	     37.73695448	     -1.27328170	     -6.18854641	    -21.45886092	     -1.40992220	     -7.81607303	      4.37593564	     -0.80320437	     -1.10985880	     11.88902990
      1.29950000	     -6.51789719	      1.20073917	     -7.76720828	      0.15272984	      0.85474241	      0.31234505	    -13.53554344	      1.26571613	      2.43919959	    -25.53076413	      9.56916102	     12.24278374	     28.53312466	     37.75800467	     -0.79397343	     -5.94026739	    -22.28236393	     -1.41454391	     -8.21984011	      4.24701764	     -0.78981532	     -1.53739657	     11.72845458
      1.30366667	     -6.53980222	      1.40225631	     -7.57702075	      0.15911089	      0.85477567	      0.31171072	    -13.23979896	      0.99960604	      2.16326122	    -26.66438571	      8.57869481	     12.22911689	     28.61514049	     37.87957531	     -0.44056071	     -5.82566887	    -23.23697930	     -1.23159577	     -8.31025934	      4.23801075	     -0.70716328	     -1.88151554	     11.68578652
      1.30783333	     -6.54178118	      1.64794980	     -7.38155719	      0.16548315	      0.85486776	      0.31095634	    -12.89917422	      0.65219103	      1.77929788	    -27.91067079	      7.68424900	     12.37726443	     29.24396276	     37.94393005	     -0.00640863	     -5.63417530	    -24.10793528	     -1.07474126	     -8.64986699	      4.12279297	     -0.65104233	     -2.24844625	     11.50232338
      1.31200000	     -6.48035079	      1.86489771	     -7.15502034	      0.17192505	      0.85512327	      0.31022501	    -12.64962475	      0.34088781	      1.39454154	    -29.09748607	      6.59598785	     12.34764063	     29.30344985	     37.92823571	      0.40210987	     -5.48968662	    -24.97527799	     -0.83245523	     -8.68825611	      4.11381462	     -0.66500559	     -2.59088411	     11.48533743
      1.31616667	     -6.44807799	      2.10728796	     -6.93739255	      0.17836111	      0.85536971	      0.30948713	    -12.32708188	     -0.00692551	      1.01171035	    -30.34384871	      5.51177308	     12.42997870	     29.41420718	     37.91878593	      0.83707782	     -5.31720620	    -25.79954261	     -0.54641464	     -8.78543865	      4.09071250	     -0.65267321	     -3.00284389	     11.41046044
      1.32033333	     -6.37401447	      2.39342854	     -6.73685934	      0.18476049	      0.85570500	      0.30864786	    -11.97455740	     -0.45381514	      0.53030151	    -31.71485108	      4.51990062	     12.67357126	     30.23782634	     37.81231516	      1.34308390	     -5.09848222	    -26.50531984	     -0.27849946	     -9.13148489	      3.85721715	     -0.69161204	     -3.39719450	     11.21772278
      1.32450000	     -6.30066671	      2.61725875	     -6.49767978	      0.19119974	      0.85607968	      0.30789218	    -11.65882483	     -0.79966709	      0.09744909	    -33.00044285	      3.33090643	     12.65918871	     30.31492013	     37.73149599	      1.76194945	     -4.98377884	    -27.29129390	      0.06669579	     -9.09857096	      3.83446685	     -0.71901913	     -3.77443061	     11.19935936
      1.32866667	     -6.20307156	      2.84690870	     -6.28189549	      0.19760132	      0.85651876	      0.30710994	    -11.32044033	     -1.18162674	     -0.35418795	    -34.35530845	      2.16763589	     12.68857545	     30.36894022	     37.58849312	      2.18706440	     -4.87564990	    -28.00979594	      0.47345093	     -9.13061354	      3.81585169	     -0.77097281	     -4.11164036	     11.15163928
      1.33283333	     -6.10851371	      3.08778006	     -6.06087521	      0.20397822	      0.85698355	      0.30631478	    -10.95033705	     -1.58721314	     -0.82262043	    -35.74151765	      0.98671296	     12.75107893	     30.41678673	     37.41752837	      2.63027026	     -4.75208767	    -28.66407983	      0.88386071	     -9.15803847	      3.79394137	     -0.83204753	     -4.47944658	     11.08686146
